<?xml version="1.0" standalone="no"?>
<!DOCTYPE svg PUBLIC "-//W3C//DTD SVG 20010904//EN"
 "http://www.w3.org/TR/2001/REC-SVG-20010904/DTD/svg10.dtd">
<svg version="1.0" xmlns="http://www.w3.org/2000/svg"
 width="1408.000000pt" height="1408.000000pt" viewBox="0 0 1408.000000 1408.000000"
 preserveAspectRatio="xMidYMid meet">
<metadata>
Created by potrace 1.11, written by Peter Selinger 2001-2013
</metadata>
<g transform="translate(0.000000,1408.000000) scale(0.100000,-0.100000)"
fill="#000000" stroke="none">
<path d="M0 7075 c0 -4605 0 -4664 19 -4675 13 -7 22 -7 26 0 4 7 13 7 24 0
12 -6 22 -5 28 1 8 8 13 7 17 0 5 -8 13 -8 27 -1 12 7 19 7 19 1 0 -7 9 -7 25
-1 16 6 25 6 25 0 0 -6 9 -6 24 0 13 5 26 7 29 4 9 -9 62 -11 80 -2 10 5 17 5
17 -1 0 -7 8 -7 22 -2 13 5 32 5 43 1 11 -4 25 -5 30 -2 16 10 35 11 40 1 3
-4 16 -4 28 0 12 5 32 5 44 0 14 -5 23 -5 23 2 0 6 7 6 19 -1 13 -7 22 -7 26
0 4 7 12 7 25 0 13 -7 21 -7 25 0 4 7 11 7 18 2 7 -5 21 -6 32 -2 11 4 30 4
43 -1 12 -5 32 -5 45 0 12 5 31 5 42 1 11 -4 25 -3 32 2 7 5 14 5 18 -2 4 -7
12 -7 27 1 14 7 23 8 30 1 7 -7 19 -7 35 -1 13 5 22 6 20 1 -3 -4 8 -7 23 -7
15 0 26 3 23 7 -2 5 6 4 19 -1 15 -5 31 -5 41 0 11 7 17 6 17 0 0 -7 8 -7 23
-2 12 5 32 5 45 0 13 -5 22 -5 22 2 0 6 7 6 20 -1 15 -8 20 -8 20 2 0 9 3 9
11 1 8 -8 20 -8 36 -2 13 5 22 6 20 1 -3 -4 8 -7 23 -7 15 0 26 3 23 7 -2 5 6
4 19 -1 15 -5 31 -5 41 0 11 7 17 6 17 0 0 -7 8 -7 23 -2 12 5 32 5 45 0 13
-5 22 -5 22 2 0 6 7 6 19 -1 12 -6 29 -7 43 -1 13 4 32 5 43 1 11 -4 25 -3 32
2 7 5 14 5 18 -2 4 -7 12 -7 26 1 13 6 25 7 32 1 7 -5 21 -6 32 -2 11 4 30 4
43 -1 14 -5 22 -5 22 2 0 6 6 7 17 0 10 -5 26 -5 40 0 14 5 23 5 23 -1 0 -6 9
-6 23 -1 12 5 32 5 44 0 14 -5 23 -5 23 2 0 6 7 6 19 -1 12 -6 29 -7 43 -1 13
4 32 5 43 1 11 -4 25 -3 32 2 7 5 14 5 18 -2 4 -7 12 -7 27 1 14 7 23 8 30 1
7 -7 19 -7 35 -1 13 5 22 6 20 1 -3 -4 8 -7 23 -7 15 0 26 3 23 7 -2 5 6 4 19
-1 15 -5 31 -5 41 0 11 7 17 6 17 0 0 -7 8 -7 23 -2 12 5 32 5 44 0 15 -5 23
-5 23 2 0 6 6 7 17 0 10 -5 26 -5 40 0 13 5 23 5 23 1 0 -4 11 -7 25 -7 14 0
25 3 25 7 0 4 11 3 25 -2 16 -6 25 -6 25 0 0 6 9 6 25 0 17 -6 25 -6 25 1 0 6
6 7 17 0 10 -5 26 -5 39 -1 12 5 24 7 27 4 8 -8 95 -10 90 -2 -2 5 7 4 20 -1
13 -5 30 -5 37 -1 8 5 19 5 25 0 6 -5 17 -5 25 0 8 5 21 5 31 -1 12 -6 20 -5
24 1 4 6 11 7 18 3 15 -9 57 -10 57 -1 0 4 7 5 17 1 22 -8 117 -8 131 0 6 4
13 3 17 -3 4 -7 12 -7 25 0 13 7 21 7 25 0 4 -7 13 -7 26 0 10 6 19 7 19 3 0
-7 44 -9 60 -3 3 1 10 1 15 0 24 -5 122 -3 132 3 7 4 14 3 18 -3 4 -6 13 -7
23 -1 11 6 24 6 34 0 11 -6 19 -6 23 1 4 6 11 7 18 3 16 -10 57 -10 57 0 0 4
9 3 19 -3 12 -6 29 -7 43 -1 13 5 33 5 46 0 13 -5 22 -5 22 2 0 6 7 6 19 -1
12 -6 22 -6 25 -1 6 10 31 9 42 -1 3 -4 17 -3 30 2 15 6 24 6 24 0 0 -6 9 -6
23 -1 12 5 31 5 42 1 11 -4 28 -3 38 2 11 5 17 5 17 -1 0 -7 8 -7 23 -2 12 5
32 5 45 0 13 -5 22 -5 22 2 0 6 7 6 19 -1 12 -6 29 -7 43 -1 13 5 33 5 46 0
13 -5 22 -5 22 2 0 6 7 6 19 -1 12 -6 22 -6 25 -1 6 10 31 9 42 -1 3 -4 17 -3
30 2 15 6 24 6 24 0 0 -6 9 -6 23 -1 12 5 31 5 42 1 11 -4 30 -4 41 1 13 4 26
3 33 -4 7 -7 11 -7 11 0 0 5 12 9 28 6 58 -8 82 -9 82 -3 0 9 32 6 47 -3 6 -4
14 -3 18 2 3 7 15 7 29 1 13 -5 26 -7 28 -4 10 9 74 10 86 1 7 -6 12 -6 12 0
0 11 29 11 48 -1 6 -4 12 -3 12 2 0 10 30 9 48 -2 6 -4 12 -3 12 2 0 10 30 9
48 -2 6 -4 12 -3 12 2 0 10 36 9 46 0 3 -4 17 -3 30 2 15 6 26 6 30 -1 3 -6
10 -6 17 -1 7 5 21 6 32 2 11 -4 29 -4 40 -1 27 9 77 7 93 -2 6 -5 12 -4 12 1
0 5 12 7 28 5 15 -2 33 -4 40 -4 13 1 33 1 55 1 6 0 23 1 37 3 14 2 31 -1 38
-6 8 -6 12 -6 12 2 0 7 8 8 25 1 15 -6 27 -6 30 0 3 5 15 6 28 1 12 -5 32 -5
44 0 13 5 25 4 29 -2 3 -5 11 -6 17 -2 15 10 68 10 85 0 6 -5 12 -4 12 1 0 10
30 9 48 -2 6 -4 12 -3 12 2 0 10 30 9 48 -2 6 -4 12 -3 12 2 0 10 30 9 48 -2
6 -4 12 -3 12 2 0 10 36 9 46 0 3 -4 16 -3 29 2 14 5 26 5 33 -2 6 -6 12 -6
16 1 4 7 15 7 30 1 13 -5 26 -6 29 -3 10 9 102 9 115 0 7 -6 12 -6 12 0 0 11
29 11 47 0 6 -4 14 -3 17 1 3 5 18 7 33 5 16 -2 34 -4 41 -4 6 1 20 1 30 1 30
0 86 2 107 4 11 1 26 -2 33 -7 7 -6 12 -6 12 0 0 11 29 11 47 0 6 -4 14 -3 17
1 3 5 18 7 33 5 16 -2 34 -4 41 -4 6 1 20 1 30 1 30 0 86 2 107 4 11 1 26 -2
33 -7 7 -6 12 -6 12 0 0 11 29 11 47 0 6 -4 14 -3 17 1 3 5 18 7 33 5 16 -2
34 -4 41 -4 6 1 20 1 30 1 30 0 86 2 107 4 11 1 26 -2 33 -7 7 -6 12 -6 12 0
0 11 29 11 47 0 6 -4 14 -3 17 1 3 5 18 7 33 5 16 -2 34 -4 41 -4 6 1 20 1 30
1 28 0 76 2 97 4 11 1 26 -2 33 -7 7 -6 12 -6 12 0 0 6 12 8 28 6 15 -2 33 -4
40 -4 13 1 33 1 55 1 6 0 23 1 37 3 14 2 31 -1 38 -6 8 -6 12 -6 12 2 0 7 8 8
25 1 15 -6 27 -6 30 0 3 5 15 6 28 1 12 -5 32 -5 44 0 13 5 25 4 29 -2 3 -5
11 -6 17 -2 15 10 68 10 85 0 6 -5 12 -4 12 1 0 10 30 9 48 -2 6 -4 12 -3 12
2 0 10 30 9 48 -2 6 -4 12 -3 12 2 0 10 30 9 48 -2 6 -4 12 -3 12 2 0 10 36 9
46 0 3 -4 17 -3 30 2 15 6 26 6 30 -1 3 -6 10 -6 17 -1 7 5 21 6 32 2 11 -4
29 -4 40 -1 27 9 77 7 93 -2 6 -5 12 -4 12 1 0 5 12 7 28 5 15 -2 33 -4 40 -4
13 1 33 1 55 1 6 0 23 1 37 3 14 2 31 -1 38 -6 6 -5 12 -6 12 -1 0 11 81 11
98 0 7 -4 12 -3 12 2 0 5 12 7 28 5 15 -2 33 -4 40 -4 13 1 33 1 55 1 6 0 23
1 37 3 14 2 31 -1 38 -6 8 -6 12 -6 12 2 0 7 8 8 25 1 13 -5 27 -6 29 -1 3 4
20 6 38 4 18 -2 40 -3 48 -3 12 0 206 0 265 0 6 0 117 1 248 3 130 1 237 -2
237 -6 0 -5 5 -5 12 -1 17 11 308 11 308 0 0 -5 6 -4 13 1 6 4 48 7 92 6 44
-2 89 -3 100 -3 11 0 74 0 140 0 66 0 125 0 130 0 6 0 117 1 248 3 130 1 237
-2 237 -6 0 -5 5 -5 12 -1 17 11 308 11 308 0 0 -5 6 -4 12 1 7 4 49 7 93 6
44 -2 89 -3 100 -3 11 0 74 0 140 0 66 0 125 0 130 0 6 0 117 1 248 3 130 1
237 -2 237 -6 0 -5 5 -5 12 -1 17 11 298 11 298 0 0 -5 6 -4 13 1 7 5 199 7
442 6 483 -3 444 -3 508 -1 l47 1 -42 47 c-24 27 -51 51 -60 55 -10 3 -18 10
-18 14 0 8 -2928 2937 -2950 2951 -8 6 -12 10 -9 10 7 0 -291 298 -311 310 -8
5 -13 10 -10 10 3 0 -277 282 -623 628 -572 571 -666 668 -639 660 11 -4 92
69 92 82 0 5 6 10 13 11 6 0 35 27 62 59 28 32 55 59 60 60 6 2 79 73 163 160
83 86 152 156 152 155 0 -1 108 107 240 240 132 133 240 241 240 241 0 -1
3626 3626 3636 3637 4 4 -1044 7 -2329 7 l-2336 0 -2334 -2334 c-1284 -1284
-2332 -2338 -2329 -2342 4 -4 -1047 1047 -2335 2334 l-2343 2342 0 -4665z"/>
</g>
</svg>
