<svg width="351.52" height="326.70667" xmlns="http://www.w3.org/2000/svg">
 <metadata id="metadata8">image/svg+xml</metadata>
 <defs>
  <clipPath clipPathUnits="userSpaceOnUse" id="clipPath18">
   <path d="m0,595.28l841.89,0l0,-595.28l-841.89,0l0,595.28z" id="path16"/>
  </clipPath>
  <clipPath clipPathUnits="userSpaceOnUse" id="clipPath26">
   <path d="m238.769,478.59l0.004,0l0,-0.008l-0.004,0l0,0.008z" id="path24"/>
  </clipPath>
  <clipPath clipPathUnits="userSpaceOnUse" id="clipPath42">
   <path d="m202.232,515.125l36.537,0l0,-73.078l-36.537,0l0,73.078z" id="path40"/>
  </clipPath>
  <clipPath clipPathUnits="userSpaceOnUse" id="clipPath58">
   <path d="m238.773,515.12l36.535,0l0,-73.068l-36.535,0l0,73.068z" id="path56"/>
  </clipPath>
  <clipPath clipPathUnits="userSpaceOnUse" id="clipPath74">
   <path d="m238.767,478.586l36.541,0l0,-36.536l-36.541,0l0,36.536z" id="path72"/>
  </clipPath>
  <clipPath clipPathUnits="userSpaceOnUse" id="clipPath90">
   <path d="m238.767,478.586l36.541,0l0,-36.536l-36.541,0l0,36.536z" id="path88"/>
  </clipPath>
  <clipPath clipPathUnits="userSpaceOnUse" id="clipPath106">
   <path d="m275.308,515.12l36.57,0l0,-73.068l-36.57,0l0,73.068z" id="path104"/>
  </clipPath>
  <clipPath clipPathUnits="userSpaceOnUse" id="clipPath126">
   <path d="m0,595.28l841.89,0l0,-595.28l-841.89,0l0,595.28z" id="path124"/>
  </clipPath>
  <clipPath clipPathUnits="userSpaceOnUse" id="clipPath134">
   <path d="m238.769,483.091l0,0l0,-0.001l0,0l0,0.001z" id="path132"/>
  </clipPath>
  <clipPath clipPathUnits="userSpaceOnUse" id="clipPath150">
   <path d="m202.232,446.55l36.535,0l0,-0.003l-36.535,0l0,0.003z" id="path148"/>
  </clipPath>
  <clipPath clipPathUnits="userSpaceOnUse" id="clipPath166">
   <path d="m202.232,483.091l36.537,0l0,-36.544l-36.537,0l0,36.544z" id="path164"/>
  </clipPath>
  <clipPath clipPathUnits="userSpaceOnUse" id="clipPath182">
   <path d="m202.232,483.091l36.537,0l0,-36.544l-36.537,0l0,36.544z" id="path180"/>
  </clipPath>
  <clipPath clipPathUnits="userSpaceOnUse" id="clipPath198">
   <path d="m202.232,483.082l36.537,0l0,-36.535l-36.537,0l0,36.535z" id="path196"/>
  </clipPath>
  <clipPath clipPathUnits="userSpaceOnUse" id="clipPath214">
   <path d="m202.232,483.082l36.537,0l0,-36.535l-36.537,0l0,36.535z" id="path212"/>
  </clipPath>
  <clipPath clipPathUnits="userSpaceOnUse" id="clipPath230">
   <path d="m202.232,483.082l36.537,0l0,-36.535l-36.537,0l0,36.535z" id="path228"/>
  </clipPath>
  <clipPath clipPathUnits="userSpaceOnUse" id="clipPath304">
   <path d="m0.000514,595.280026l87.451,0l0,-174.908l-87.451,0l0,174.908z" id="path302"/>
  </clipPath>
  <clipPath clipPathUnits="userSpaceOnUse" id="clipPath320">
   <path d="m87.458514,595.272026l87.45,0l0,-174.891l-87.45,0l0,174.891z" id="path318"/>
  </clipPath>
  <clipPath clipPathUnits="userSpaceOnUse" id="clipPath336">
   <path d="m87.449514,507.826026l87.459,0l0,-87.449l-87.459,0l0,87.449z" id="path334"/>
  </clipPath>
  <clipPath clipPathUnits="userSpaceOnUse" id="clipPath352">
   <path d="m87.449514,507.826026l87.459,0l0,-87.449l-87.459,0l0,87.449z" id="path350"/>
  </clipPath>
  <clipPath clipPathUnits="userSpaceOnUse" id="clipPath368">
   <path d="m174.908514,595.272026l87.526,0l0,-174.891l-87.526,0l0,174.891z" id="path366"/>
  </clipPath>
  <clipPath clipPathUnits="userSpaceOnUse" id="clipPath388">
   <path d="m87.451514,507.839026l0.007,0l0,-0.013l-0.007,0l0,0.013z" id="path386"/>
  </clipPath>
  <clipPath clipPathUnits="userSpaceOnUse" id="clipPath404">
   <path d="m0.000514,420.377026l87.449,0l0,-0.005l-87.449,0l0,0.005z" id="path402"/>
  </clipPath>
  <clipPath clipPathUnits="userSpaceOnUse" id="clipPath420">
   <path d="m0.000514,507.832026l87.458,0l0,-87.46l-87.458,0l0,87.46z" id="path418"/>
  </clipPath>
  <clipPath clipPathUnits="userSpaceOnUse" id="clipPath436">
   <path d="m0.000514,507.832026l87.458,0l0,-87.46l-87.458,0l0,87.46z" id="path434"/>
  </clipPath>
  <clipPath clipPathUnits="userSpaceOnUse" id="clipPath452">
   <path d="m87.458514,507.826026l0,0l0,0z" id="path450"/>
  </clipPath>
  <clipPath clipPathUnits="userSpaceOnUse" id="clipPath468">
   <path d="m87.458514,507.826026l0,0l0,0z" id="path466"/>
  </clipPath>
  <clipPath clipPathUnits="userSpaceOnUse" id="clipPath484">
   <path d="m0.000514,507.826026l87.458,0l0,-87.454l-87.458,0l0,87.454z" id="path482"/>
  </clipPath>
  <clipPath clipPathUnits="userSpaceOnUse" id="clipPath500">
   <path d="m0.000514,507.826026l87.458,0l0,-87.454l-87.458,0l0,87.454z" id="path498"/>
  </clipPath>
  <clipPath clipPathUnits="userSpaceOnUse" id="clipPath516">
   <path d="m0.000514,507.826026l87.458,0l0,-87.454l-87.458,0l0,87.454z" id="path514"/>
  </clipPath>
 </defs>
 <g>
  <title>background</title>
  <rect fill="none" id="canvas_background" height="328.70667" width="353.52" y="-1" x="-1"/>
 </g>
 <g>
  <title>Layer 1</title>
  <g id="svg_1">
   <g transform="matrix(1.3333333,0,0,-1.3333333,0,793.70667) " id="g298">
    <g id="g300"/>
    <g id="g312">
     <g clip-path="url(#clipPath304)" id="g310">
      <g id="g308">
       <path fill="#f6bb19" fill-rule="nonzero" d="m0.0003,595.280022l87.41,-87.414l-87.41,-87.417l0,-0.077l87.452,87.46l-87.452,87.448z" id="path306"/>
      </g>
     </g>
    </g>
   </g>
   <g transform="matrix(1.3333333,0,0,-1.3333333,0,793.70667) " id="g314">
    <g id="g316"/>
    <g id="g328">
     <g clip-path="url(#clipPath320)" id="g326">
      <g id="g324">
       <path fill="#f7931d" fill-rule="nonzero" d="m87.458827,507.826424l0,0l87.449,-87.445l0,174.891l-87.449,-87.446z" id="path322"/>
      </g>
     </g>
    </g>
   </g>
   <g transform="matrix(1.3333333,0,0,-1.3333333,0,793.70667) " id="g330">
    <g id="g332"/>
    <g id="g344">
     <g clip-path="url(#clipPath336)" id="g342">
      <g id="g340">
       <path fill="#f6bb19" fill-rule="nonzero" d="m87.449,420.377129l87.459,0.004l-87.449,87.445l-0.01,-87.449z" id="path338"/>
      </g>
     </g>
    </g>
   </g>
   <g transform="matrix(1.3333333,0,0,-1.3333333,0,793.70667) " id="g346">
    <g id="g348"/>
    <g id="g360">
     <g clip-path="url(#clipPath352)" id="g358">
      <g id="g356">
       <path fill="#f7931d" fill-rule="nonzero" d="m87.449,420.377129l87.459,0.004l-87.449,87.445l-0.01,-87.449z" id="path354"/>
      </g>
     </g>
    </g>
   </g>
   <g transform="matrix(1.3333333,0,0,-1.3333333,0,793.70667) " id="g362">
    <g id="g364"/>
    <g id="g376">
     <g clip-path="url(#clipPath368)" id="g374">
      <g id="g372">
       <path fill="#f6bb19" fill-rule="nonzero" d="m262.434412,595.27224l-87.526,0l0,-174.891l87.526,0l-87.448,87.45l87.448,87.441z" id="path370"/>
      </g>
     </g>
    </g>
   </g>
   <g transform="matrix(1.3333333,0,0,-1.3333333,0,793.70667) " id="g378">
    <path fill="#7f3f98" fill-rule="nonzero" d="m0.0003,595.280022l0,-174.831l87.41,87.417l-87.41,87.414z" id="path380"/>
   </g>
   <g transform="matrix(1.3333333,0,0,-1.3333333,0,793.70667) " id="g382">
    <g id="g384"/>
    <g id="g396">
     <g clip-path="url(#clipPath388)" id="g394">
      <g id="g392">
       <path fill="#f6bb19" fill-rule="nonzero" d="m87.458827,507.826424l0,0.013l-0.007,-0.007l0.007,-0.006z" id="path390"/>
      </g>
     </g>
    </g>
   </g>
   <g transform="matrix(1.3333333,0,0,-1.3333333,0,793.70667) " id="g398">
    <g id="g400"/>
    <g id="g412">
     <g clip-path="url(#clipPath404)" id="g410">
      <g id="g408">
       <path fill="#f6bb19" fill-rule="nonzero" d="m87.449,420.37233l0,0.005l-87.449,-0.005l87.449,0z" id="path406"/>
      </g>
     </g>
    </g>
   </g>
   <g transform="matrix(1.3333333,0,0,-1.3333333,0,793.70667) " id="g414">
    <g id="g416"/>
    <g id="g428">
     <g clip-path="url(#clipPath420)" id="g426">
      <g id="g424">
       <path fill="#f6bb19" fill-rule="nonzero" d="m87.452021,507.832222l-87.452,-87.46l87.458,87.454l-0.006,0.006z" id="path422"/>
      </g>
     </g>
    </g>
   </g>
   <g transform="matrix(1.3333333,0,0,-1.3333333,0,793.70667) " id="g430">
    <g id="g432"/>
    <g id="g444">
     <g clip-path="url(#clipPath436)" id="g442">
      <g id="g440">
       <path fill="#f6bb19" fill-rule="nonzero" d="m87.452021,507.832222l-87.452,-87.46l87.458,87.454l-0.006,0.006z" id="path438"/>
      </g>
     </g>
    </g>
   </g>
   <g transform="matrix(1.3333333,0,0,-1.3333333,0,793.70667) " id="g446">
    <g id="g448"/>
    <g id="g460">
     <g clip-path="url(#clipPath452)" id="g458">
      <g id="g456">
       <path fill="#f7931d" fill-rule="nonzero" d="m87.458827,507.826424l0,0z" id="path454"/>
      </g>
     </g>
    </g>
   </g>
   <g transform="matrix(1.3333333,0,0,-1.3333333,0,793.70667) " id="g462">
    <g id="g464"/>
    <g id="g476">
     <g clip-path="url(#clipPath468)" id="g474">
      <g id="g472">
       <path fill="#f6bb19" fill-rule="nonzero" d="m87.458827,507.826424l0,0z" id="path470"/>
      </g>
     </g>
    </g>
   </g>
   <g transform="matrix(1.3333333,0,0,-1.3333333,0,793.70667) " id="g478">
    <g id="g480"/>
    <g id="g492">
     <g clip-path="url(#clipPath484)" id="g490">
      <g id="g488">
       <path fill="#f6bb19" fill-rule="nonzero" d="m87.458308,507.826424l-87.458,-87.454l87.449,0.005l0.009,87.449z" id="path486"/>
      </g>
     </g>
    </g>
   </g>
   <g transform="matrix(1.3333333,0,0,-1.3333333,0,793.70667) " id="g494">
    <g id="g496"/>
    <g id="g508">
     <g clip-path="url(#clipPath500)" id="g506">
      <g id="g504">
       <path fill="#f7931d" fill-rule="nonzero" d="m87.458308,507.826424l-87.458,-87.454l87.449,0.005l0.009,87.449z" id="path502"/>
      </g>
     </g>
    </g>
   </g>
   <g transform="matrix(1.3333333,0,0,-1.3333333,0,793.70667) " id="g510">
    <g id="g512"/>
    <g id="g524">
     <g clip-path="url(#clipPath516)" id="g522">
      <g id="g520">
       <path fill="#f6bb19" fill-rule="nonzero" d="m87.458308,507.826424l-87.458,-87.454l87.449,0.005l0.009,87.449z" id="path518"/>
      </g>
     </g>
    </g>
   </g>
   <g transform="matrix(1.3333333,0,0,-1.3333333,0,793.70667) " id="g526">
    <path fill="#000000" fill-rule="nonzero" d="m13.234217,386.529526c0,-3.412 -1.015,-7.491 -5.84,-7.491c-4.845,0 -5.862,4.077 -5.862,7.491l0,9.138l-1.532,0l0.004,-9.136c-0.002,-5.731 2.693,-9.02 7.39,-9.02c4.682,0 7.367,3.289 7.367,9.02l0,9.134l-1.531,0.002l0.004,-9.138z" id="path528"/>
   </g>
   <g transform="matrix(1.3333333,0,0,-1.3333333,0,793.70667) " id="g530">
    <path fill="#000000" fill-rule="nonzero" d="m30.751307,383.293129l-7.411,12.374l-1.209,-0.002l0,-17.8l1.531,0l0,14.325l6.598,-11.023l0.976,0l6.598,11.023l0.004,-14.327l1.53,0.002l0,17.804l-1.206,-0.002l-7.411,-12.374z" id="path532"/>
   </g>
   <g transform="matrix(1.3333333,0,0,-1.3333333,0,793.70667) " id="g534">
    <path fill="#000000" fill-rule="nonzero" d="m49.883601,385.385925l3.385,7.744l3.35,-7.744l-6.735,0zm2.832,10.281l-7.774,-17.802l1.668,0l2.623,5.995l8.056,-0.002l2.617,-5.993l1.67,0l-7.744,17.802l-1.116,0z" id="path536"/>
   </g>
   <g transform="matrix(1.3333333,0,0,-1.3333333,0,793.70667) " id="g538">
    <path fill="#000000" fill-rule="nonzero" d="m75.757227,383.291229l-7.413,12.374l-1.209,0.002l-0.002,-17.802l1.53,0l0.004,14.325l6.602,-11.023l0.973,0l6.6,11.023l0.002,-14.325l1.53,0l-0.002,17.8l-1.204,0l-7.411,-12.374z" id="path540"/>
   </g>
   <g transform="matrix(1.3333333,0,0,-1.3333333,0,793.70667) " id="g542">
    <path fill="#000000" fill-rule="nonzero" d="m91.910029,395.645729l0,-17.78l1.527,0l0,17.778l-1.527,0.002z" id="path544"/>
   </g>
   <g transform="matrix(1.3333333,0,0,-1.3333333,0,793.70667) " id="g546">
    <path fill="#000000" fill-rule="nonzero" d="m7.93542,352.534428c-4.122,0 -7.428,3.823 -7.428,8.019c0,3.94 2.738,8.021 7.148,8.021c2.593,0 4.667,-0.969 5.941,-3.329l0.45,0.144c-1.064,2.123 -2.926,3.657 -6.391,3.657c-4.457,0 -7.622,-4.128 -7.62,-8.493c0,-4.128 3.256,-8.491 7.9,-8.489c2.358,0 5.614,1.436 6.511,3.889l-0.45,0.119c-0.756,-2.004 -4.011,-3.538 -6.061,-3.538" id="path548"/>
   </g>
   <g transform="matrix(1.3333333,0,0,-1.3333333,0,793.70667) " id="g550">
    <path fill="#000000" fill-rule="nonzero" d="m28.574,352.559826c-4.242,-0.002 -7.218,3.845 -7.333,8.019c0,3.96 2.968,8.018 7.333,8.018c4.151,0.002 7.312,-3.848 7.312,-8.018c0,-3.943 -2.947,-8.019 -7.312,-8.019m0,16.507c-4.41,0 -7.807,-4.032 -7.807,-8.488c0,-4.295 3.185,-8.35 7.807,-8.493c4.389,0.071 7.784,4.011 7.784,8.493c-0.003,4.17 -3.163,8.488 -7.784,8.488" id="path552"/>
   </g>
   <g transform="matrix(1.3333333,0,0,-1.3333333,0,793.70667) " id="g554">
    <path fill="#000000" fill-rule="nonzero" d="m44.620417,368.952324l-0.474,0l0,-16.748l10.993,0l0,0.47l-10.518,0.004l-0.001,16.274z" id="path556"/>
   </g>
   <g transform="matrix(1.3333333,0,0,-1.3333333,0,793.70667) " id="g558">
    <path fill="#000000" fill-rule="nonzero" d="m62.214716,368.950424l-0.467,0.002l0,-16.748l10.985,0l0,0.468l-10.519,0.002l0.001,16.276z" id="path560"/>
   </g>
   <g transform="matrix(1.3333333,0,0,-1.3333333,0,793.70667) " id="g562">
    <path fill="#000000" fill-rule="nonzero" d="m79.786402,360.532425l9.037,0l0,0.472l-9.035,0l-0.002,7.472l10.311,-0.002l0,0.476l-10.78,0.002l0,-16.748l10.989,0l0,0.47l-10.518,-0.002l-0.002,7.86z" id="path564"/>
   </g>
   <g transform="matrix(1.3333333,0,0,-1.3333333,0,793.70667) " id="g566">
    <path fill="#000000" fill-rule="nonzero" d="m103.705409,352.534428c-4.129,0 -7.427,3.823 -7.428,8.019c0.001,3.94 2.734,8.021 7.145,8.021c2.594,0 4.672,-0.969 5.946,-3.329l0.442,0.144c-1.058,2.123 -2.921,3.655 -6.388,3.657c-4.46,-0.002 -7.615,-4.13 -7.617,-8.493c0.002,-4.128 3.254,-8.491 7.9,-8.489c2.356,0 5.612,1.436 6.51,3.889l-0.447,0.119c-0.756,-2.004 -4.013,-3.538 -6.063,-3.538" id="path568"/>
   </g>
   <g transform="matrix(1.3333333,0,0,-1.3333333,0,793.70667) " id="g570">
    <path fill="#000000" fill-rule="nonzero" d="m115.158015,368.474823l6.413,0l-0.003,-16.269l0.475,-0.002l0,16.273l6.413,0l-0.002,0.476l-13.296,0l0,-0.478z" id="path572"/>
   </g>
   <g transform="matrix(1.3333333,0,0,-1.3333333,0,793.70667) " id="g574">
    <path fill="#000000" fill-rule="nonzero" d="m135.103327,352.204327l0.473,0.002l0,16.717l-0.473,0.002l0,-16.721z" id="path576"/>
   </g>
   <g transform="matrix(1.3333333,0,0,-1.3333333,0,793.70667) " id="g578">
    <path fill="#000000" fill-rule="nonzero" d="m149.831904,352.795128l-7.056,16.155l-0.492,0.002l7.288,-16.748l0.517,0.002l7.29,16.746l-0.52,-0.002l-7.027,-16.155z" id="path580"/>
   </g>
   <g transform="matrix(1.3333333,0,0,-1.3333333,0,793.70667) " id="g582">
    <path fill="#000000" fill-rule="nonzero" d="m164.735224,352.674026l0,7.858l9.032,0l0,0.474l-9.036,-0.002l0.004,7.473l10.307,0l-0.004,0.473l-10.775,0.002l0.002,-16.748l10.989,0l0,0.47l-10.519,0z" id="path584"/>
   </g>
  </g>
 </g>
</svg>