<svg width="351.52" height="234.70667" xmlns="http://www.w3.org/2000/svg">
 <metadata id="metadata8">image/svg+xml</metadata>
 <defs>
  <clipPath clipPathUnits="userSpaceOnUse" id="clipPath18">
   <path d="m0,595.28l841.89,0l0,-595.28l-841.89,0l0,595.28z" id="path16"/>
  </clipPath>
  <clipPath clipPathUnits="userSpaceOnUse" id="clipPath26">
   <path d="m238.769,478.59l0.004,0l0,-0.008l-0.004,0l0,0.008z" id="path24"/>
  </clipPath>
  <clipPath clipPathUnits="userSpaceOnUse" id="clipPath42">
   <path d="m202.232,515.125l36.537,0l0,-73.078l-36.537,0l0,73.078z" id="path40"/>
  </clipPath>
  <clipPath clipPathUnits="userSpaceOnUse" id="clipPath58">
   <path d="m238.773,515.12l36.535,0l0,-73.068l-36.535,0l0,73.068z" id="path56"/>
  </clipPath>
  <clipPath clipPathUnits="userSpaceOnUse" id="clipPath74">
   <path d="m238.767,478.586l36.541,0l0,-36.536l-36.541,0l0,36.536z" id="path72"/>
  </clipPath>
  <clipPath clipPathUnits="userSpaceOnUse" id="clipPath90">
   <path d="m238.767,478.586l36.541,0l0,-36.536l-36.541,0l0,36.536z" id="path88"/>
  </clipPath>
  <clipPath clipPathUnits="userSpaceOnUse" id="clipPath106">
   <path d="m275.308,515.12l36.57,0l0,-73.068l-36.57,0l0,73.068z" id="path104"/>
  </clipPath>
  <clipPath clipPathUnits="userSpaceOnUse" id="clipPath126">
   <path d="m0,595.28l841.89,0l0,-595.28l-841.89,0l0,595.28z" id="path124"/>
  </clipPath>
  <clipPath clipPathUnits="userSpaceOnUse" id="clipPath134">
   <path d="m238.769,483.091l0,0l0,-0.001l0,0l0,0.001z" id="path132"/>
  </clipPath>
  <clipPath clipPathUnits="userSpaceOnUse" id="clipPath150">
   <path d="m202.232,446.55l36.535,0l0,-0.003l-36.535,0l0,0.003z" id="path148"/>
  </clipPath>
  <clipPath clipPathUnits="userSpaceOnUse" id="clipPath166">
   <path d="m202.232,483.091l36.537,0l0,-36.544l-36.537,0l0,36.544z" id="path164"/>
  </clipPath>
  <clipPath clipPathUnits="userSpaceOnUse" id="clipPath182">
   <path d="m202.232,483.091l36.537,0l0,-36.544l-36.537,0l0,36.544z" id="path180"/>
  </clipPath>
  <clipPath clipPathUnits="userSpaceOnUse" id="clipPath198">
   <path d="m202.232,483.082l36.537,0l0,-36.535l-36.537,0l0,36.535z" id="path196"/>
  </clipPath>
  <clipPath clipPathUnits="userSpaceOnUse" id="clipPath214">
   <path d="m202.232,483.082l36.537,0l0,-36.535l-36.537,0l0,36.535z" id="path212"/>
  </clipPath>
  <clipPath clipPathUnits="userSpaceOnUse" id="clipPath230">
   <path d="m202.232,483.082l36.537,0l0,-36.535l-36.537,0l0,36.535z" id="path228"/>
  </clipPath>
  <clipPath clipPathUnits="userSpaceOnUse" id="clipPath304">
   <path d="m0.000514,595.280026l87.451,0l0,-174.908l-87.451,0l0,174.908z" id="path302"/>
  </clipPath>
  <clipPath clipPathUnits="userSpaceOnUse" id="clipPath320">
   <path d="m87.458514,595.272026l87.45,0l0,-174.891l-87.45,0l0,174.891z" id="path318"/>
  </clipPath>
  <clipPath clipPathUnits="userSpaceOnUse" id="clipPath336">
   <path d="m87.449514,507.826026l87.459,0l0,-87.449l-87.459,0l0,87.449z" id="path334"/>
  </clipPath>
  <clipPath clipPathUnits="userSpaceOnUse" id="clipPath352">
   <path d="m87.449514,507.826026l87.459,0l0,-87.449l-87.459,0l0,87.449z" id="path350"/>
  </clipPath>
  <clipPath clipPathUnits="userSpaceOnUse" id="clipPath368">
   <path d="m174.908514,595.272026l87.526,0l0,-174.891l-87.526,0l0,174.891z" id="path366"/>
  </clipPath>
  <clipPath clipPathUnits="userSpaceOnUse" id="clipPath388">
   <path d="m87.451514,507.839026l0.007,0l0,-0.013l-0.007,0l0,0.013z" id="path386"/>
  </clipPath>
  <clipPath clipPathUnits="userSpaceOnUse" id="clipPath404">
   <path d="m0.000514,420.377026l87.449,0l0,-0.005l-87.449,0l0,0.005z" id="path402"/>
  </clipPath>
  <clipPath clipPathUnits="userSpaceOnUse" id="clipPath420">
   <path d="m0.000514,507.832026l87.458,0l0,-87.46l-87.458,0l0,87.46z" id="path418"/>
  </clipPath>
  <clipPath clipPathUnits="userSpaceOnUse" id="clipPath436">
   <path d="m0.000514,507.832026l87.458,0l0,-87.46l-87.458,0l0,87.46z" id="path434"/>
  </clipPath>
  <clipPath clipPathUnits="userSpaceOnUse" id="clipPath452">
   <path d="m87.458514,507.826026l0,0l0,0z" id="path450"/>
  </clipPath>
  <clipPath clipPathUnits="userSpaceOnUse" id="clipPath468">
   <path d="m87.458514,507.826026l0,0l0,0z" id="path466"/>
  </clipPath>
  <clipPath clipPathUnits="userSpaceOnUse" id="clipPath484">
   <path d="m0.000514,507.826026l87.458,0l0,-87.454l-87.458,0l0,87.454z" id="path482"/>
  </clipPath>
  <clipPath clipPathUnits="userSpaceOnUse" id="clipPath500">
   <path d="m0.000514,507.826026l87.458,0l0,-87.454l-87.458,0l0,87.454z" id="path498"/>
  </clipPath>
  <clipPath clipPathUnits="userSpaceOnUse" id="clipPath516">
   <path d="m0.000514,507.826026l87.458,0l0,-87.454l-87.458,0l0,87.454z" id="path514"/>
  </clipPath>
 </defs>
 <g>
  <title>background</title>
  <rect fill="none" id="canvas_background" height="236.70667" width="353.52" y="-1" x="-1"/>
 </g>
 <g>
  <title>Layer 1</title>
  <g transform="matrix(1.3333333,0,0,-1.3333333,0,793.70667) " id="g298">
   <g id="g300"/>
   <g id="g312">
    <g clip-path="url(#clipPath304)" id="g310">
     <g id="g308">
      <path fill="#f6bb19" fill-rule="nonzero" d="m0.0003,595.280022l87.41,-87.414l-87.41,-87.417l0,-0.077l87.452,87.46l-87.452,87.448z" id="path306"/>
     </g>
    </g>
   </g>
  </g>
  <g transform="matrix(1.3333333,0,0,-1.3333333,0,793.70667) " id="g314">
   <g id="g316"/>
   <g id="g328">
    <g clip-path="url(#clipPath320)" id="g326">
     <g id="g324">
      <path fill="#f7931d" fill-rule="nonzero" d="m87.458827,507.826424l0,0l87.449,-87.445l0,174.891l-87.449,-87.446z" id="path322"/>
     </g>
    </g>
   </g>
  </g>
  <g transform="matrix(1.3333333,0,0,-1.3333333,0,793.70667) " id="g330">
   <g id="g332"/>
   <g id="g344">
    <g clip-path="url(#clipPath336)" id="g342">
     <g id="g340">
      <path fill="#f6bb19" fill-rule="nonzero" d="m87.449,420.377129l87.459,0.004l-87.449,87.445l-0.01,-87.449z" id="path338"/>
     </g>
    </g>
   </g>
  </g>
  <g transform="matrix(1.3333333,0,0,-1.3333333,0,793.70667) " id="g346">
   <g id="g348"/>
   <g id="g360">
    <g clip-path="url(#clipPath352)" id="g358">
     <g id="g356">
      <path fill="#e96b0a" fill-rule="nonzero" d="m87.449,420.377129l87.459,0.004l-87.449,87.445l-0.01,-87.449z" id="path354"/>
     </g>
    </g>
   </g>
  </g>
  <g transform="matrix(1.3333333,0,0,-1.3333333,0,793.70667) " id="g362">
   <g id="g364"/>
   <g id="g376">
    <g clip-path="url(#clipPath368)" id="g374">
     <g id="g372">
      <path fill="#f6bb19" fill-rule="nonzero" d="m262.434412,595.27224l-87.526,0l0,-174.891l87.526,0l-87.448,87.45l87.448,87.441z" id="path370"/>
     </g>
    </g>
   </g>
  </g>
  <g transform="matrix(1.3333333,0,0,-1.3333333,0,793.70667) " id="g378">
   <path fill="#7f3f98" fill-rule="nonzero" d="m0.0003,595.280022l0,-174.831l87.41,87.417l-87.41,87.414z" id="path380"/>
  </g>
  <g transform="matrix(1.3333333,0,0,-1.3333333,0,793.70667) " id="g382">
   <g id="g384"/>
   <g id="g396">
    <g clip-path="url(#clipPath388)" id="g394">
     <g id="g392">
      <path fill="#f6bb19" fill-rule="nonzero" d="m87.458827,507.826424l0,0.013l-0.007,-0.007l0.007,-0.006z" id="path390"/>
     </g>
    </g>
   </g>
  </g>
  <g transform="matrix(1.3333333,0,0,-1.3333333,0,793.70667) " id="g398">
   <g id="g400"/>
   <g id="g412">
    <g clip-path="url(#clipPath404)" id="g410">
     <g id="g408">
      <path fill="#f6bb19" fill-rule="nonzero" d="m87.449,420.37233l0,0.005l-87.449,-0.005l87.449,0z" id="path406"/>
     </g>
    </g>
   </g>
  </g>
  <g transform="matrix(1.3333333,0,0,-1.3333333,0,793.70667) " id="g414">
   <g id="g416"/>
   <g id="g428">
    <g clip-path="url(#clipPath420)" id="g426">
     <g id="g424">
      <path fill="#f6bb19" fill-rule="nonzero" d="m87.452021,507.832222l-87.452,-87.46l87.458,87.454l-0.006,0.006z" id="path422"/>
     </g>
    </g>
   </g>
  </g>
  <g transform="matrix(1.3333333,0,0,-1.3333333,0,793.70667) " id="g430">
   <g id="g432"/>
   <g id="g444">
    <g clip-path="url(#clipPath436)" id="g442">
     <g id="g440">
      <path fill="#f6bb19" fill-rule="nonzero" d="m87.452021,507.832222l-87.452,-87.46l87.458,87.454l-0.006,0.006z" id="path438"/>
     </g>
    </g>
   </g>
  </g>
  <g transform="matrix(1.3333333,0,0,-1.3333333,0,793.70667) " id="g446">
   <g id="g448"/>
   <g id="g460">
    <g clip-path="url(#clipPath452)" id="g458">
     <g id="g456">
      <path fill="#f7931d" fill-rule="nonzero" d="m87.458827,507.826424l0,0z" id="path454"/>
     </g>
    </g>
   </g>
  </g>
  <g transform="matrix(1.3333333,0,0,-1.3333333,0,793.70667) " id="g462">
   <g id="g464"/>
   <g id="g476">
    <g clip-path="url(#clipPath468)" id="g474">
     <g id="g472">
      <path fill="#f6bb19" fill-rule="nonzero" d="m87.458827,507.826424l0,0z" id="path470"/>
     </g>
    </g>
   </g>
  </g>
  <g transform="matrix(1.3333333,0,0,-1.3333333,0,793.70667) " id="g478">
   <g id="g480"/>
   <g id="g492">
    <g clip-path="url(#clipPath484)" id="g490">
     <g id="g488">
      <path fill="#f6bb19" fill-rule="nonzero" d="m87.458308,507.826424l-87.458,-87.454l87.449,0.005l0.009,87.449z" id="path486"/>
     </g>
    </g>
   </g>
  </g>
  <g transform="matrix(1.3333333,0,0,-1.3333333,0,793.70667) " id="g494">
   <g id="g496"/>
   <g id="g508">
    <g clip-path="url(#clipPath500)" id="g506">
     <g id="g504">
      <path fill="#f7931d" fill-rule="nonzero" d="m87.458308,507.826424l-87.458,-87.454l87.449,0.005l0.009,87.449z" id="path502"/>
     </g>
    </g>
   </g>
  </g>
  <g transform="matrix(1.3333333,0,0,-1.3333333,0,793.70667) " id="g510">
   <g id="g512"/>
   <g id="g524">
    <g clip-path="url(#clipPath516)" id="g522">
     <g id="g520">
      <path fill="#df4e02" fill-rule="nonzero" d="m87.458308,507.826424l-87.458,-87.454l87.449,0.005l0.009,87.449z" id="path518"/>
     </g>
    </g>
   </g>
  </g>
 </g>
</svg>